<?xml version="1.0" standalone="no"?>
<!DOCTYPE svg PUBLIC "-//W3C//DTD SVG 20010904//EN"
 "http://www.w3.org/TR/2001/REC-SVG-20010904/DTD/svg10.dtd">
<svg version="1.0" xmlns="http://www.w3.org/2000/svg"
 width="129.000000pt" height="129.000000pt" viewBox="0 0 129.000000 129.000000"
 preserveAspectRatio="xMidYMid meet">
<metadata>
Created by potrace 1.14, written by Peter Selinger 2001-2017
</metadata>
<g transform="translate(0.000000,129.000000) scale(0.100000,-0.100000)"
fill="#000000" stroke="none">
<path d="M540 907 c-46 -67 -84 -123 -86 -125 -1 -2 -23 -4 -48 -5 -42 -1 -45
-3 -40 -22 4 -11 12 -27 20 -36 12 -13 8 -22 -22 -68 -20 -29 -34 -55 -31 -57
2 -2 135 -3 295 -2 l292 3 -39 59 -39 58 20 46 c12 27 22 77 26 126 l5 81 -44
-35 c-45 -37 -95 -70 -103 -70 -3 0 -31 38 -64 84 l-59 85 -83 -122z"/>
<path d="M64 475 c-22 -62 -33 -95 -30 -95 2 0 17 7 32 15 26 13 30 13 40 0
12 -16 34 -21 34 -7 0 4 -7 28 -17 54 -12 35 -21 46 -36 45 -11 -1 -21 -6 -23
-12z m29 -30 c4 -8 2 -17 -3 -20 -6 -4 -10 3 -10 14 0 25 6 27 13 6z"/>
<path d="M158 456 c-5 -50 1 -76 18 -69 8 3 14 15 14 27 0 19 2 18 24 -9 25
-31 49 -28 30 3 -8 12 -8 22 -1 33 18 29 2 48 -41 47 -37 0 -40 -3 -44 -32z
m60 2 c-6 -18 -28 -21 -28 -4 0 9 7 16 16 16 9 0 14 -5 12 -12z"/>
<path d="M282 477 c-43 -54 7 -115 71 -85 20 10 24 72 6 84 -21 13 -67 14 -77
1z m53 -38 c0 -15 -7 -25 -17 -27 -13 -3 -18 3 -18 21 0 13 3 27 7 31 13 12
28 -1 28 -25z"/>
<path d="M390 442 c0 -27 3 -51 6 -55 12 -12 32 5 27 24 -7 26 4 24 31 -8 30
-35 41 -25 41 34 -1 36 -5 49 -17 51 -12 2 -16 -3 -14 -22 4 -32 3 -32 -28 -1
-36 36 -46 31 -46 -23z"/>
<path d="M569 458 c0 -18 -2 -41 -4 -50 -2 -10 1 -18 6 -18 5 0 12 0 17 -1 4
0 10 10 13 23 l6 23 13 -26 c10 -23 21 -27 48 -20 1 1 -5 12 -14 26 -11 17
-12 25 -4 25 6 0 10 10 8 22 -2 18 -11 23 -45 26 -43 3 -43 3 -44 -30z m61 3
c0 -5 -7 -11 -15 -15 -9 -3 -15 0 -15 9 0 8 7 15 15 15 8 0 15 -4 15 -9z"/>
<path d="M682 436 l3 -50 43 -2 c30 -1 42 3 42 13 0 8 -6 13 -12 12 -27 -3
-48 1 -48 11 0 6 14 10 31 10 17 0 28 4 24 10 -3 6 -18 10 -32 10 -15 0 -23 3
-19 8 8 7 13 8 41 11 8 0 15 5 15 10 0 4 -20 8 -45 8 l-46 0 3 -51z"/>
<path d="M790 470 c-10 -18 -7 -22 26 -36 28 -12 34 -18 25 -27 -9 -9 -14 -9
-20 2 -5 7 -17 11 -26 9 -18 -3 -18 -4 -1 -20 9 -10 27 -16 39 -14 12 3 25 5
28 5 4 1 10 8 13 17 8 21 -11 44 -35 44 -10 0 -21 5 -25 11 -4 8 3 9 25 4 32
-7 44 8 15 19 -29 11 -53 6 -64 -14z"/>
<path d="M906 471 c-22 -25 -15 -66 14 -81 45 -24 99 36 72 78 -16 23 -66 25
-86 3z m64 -31 c0 -10 -6 -23 -14 -29 -20 -17 -43 23 -26 44 15 18 40 8 40
-15z"/>
<path d="M1020 435 c0 -39 4 -52 15 -52 9 0 15 10 15 24 0 30 14 30 27 0 6
-13 18 -24 27 -24 20 0 20 7 1 34 -13 19 -13 22 1 27 12 4 13 10 4 26 -8 15
-20 19 -50 18 l-40 -1 0 -52z m58 24 c-2 -6 -8 -10 -13 -10 -5 0 -11 4 -13 10
-2 6 4 11 13 11 9 0 15 -5 13 -11z"/>
<path d="M1124 478 c-3 -5 3 -12 15 -15 17 -4 21 -13 21 -42 0 -27 4 -38 15
-38 11 0 15 11 15 38 0 29 4 38 21 42 35 9 13 24 -36 24 -25 0 -48 -4 -51 -9z"/>
<path d="M311 320 c10 -6 15 -20 14 -35 -2 -14 1 -27 6 -31 5 -3 9 10 9 30 0
19 6 37 13 39 6 3 -4 6 -23 6 -27 0 -31 -2 -19 -9z"/>
<path d="M372 294 c1 -36 18 -49 18 -14 0 11 5 20 10 20 6 0 10 -11 10 -25 0
-14 4 -25 9 -25 5 0 8 8 6 18 -2 9 -4 22 -4 27 -1 6 -12 15 -26 21 -23 11 -24
10 -23 -22z"/>
<path d="M532 293 c2 -30 8 -39 25 -41 27 -4 44 25 32 56 -6 15 -17 22 -34 22
-24 0 -26 -3 -23 -37z m43 17 c3 -5 -3 -10 -15 -10 -12 0 -18 5 -15 10 3 6 10
10 15 10 5 0 12 -4 15 -10z m-1 -29 c3 -5 -1 -11 -9 -15 -9 -3 -15 0 -15 9 0
16 16 20 24 6z"/>
<path d="M611 290 c0 -28 2 -40 8 -32 7 12 12 12 29 1 18 -11 24 -11 34 0 11
11 9 12 -9 6 -14 -4 -23 -2 -23 4 0 6 9 11 20 11 24 0 27 18 4 27 -10 4 -22
-1 -29 -10 -12 -17 -30 -24 -22 -9 3 4 1 16 -4 27 -5 15 -8 8 -8 -25z"/>
<path d="M444 296 c-13 -33 23 -65 41 -36 3 5 0 7 -8 4 -8 -3 -18 -1 -22 5 -3
7 3 11 15 11 13 0 20 5 18 13 -7 18 -37 21 -44 3z"/>
<path d="M706 298 c-7 -20 -3 -48 5 -48 4 0 7 14 7 30 -1 32 -6 39 -12 18z"/>
<path d="M737 303 c-12 -12 -7 -23 11 -23 15 0 15 2 2 11 -12 8 -10 9 9 4 16
-5 21 -4 17 4 -8 12 -29 15 -39 4z"/>
<path d="M792 283 c2 -21 9 -28 25 -29 26 -1 33 13 22 41 -7 19 -8 19 -8 -2
-1 -12 -5 -25 -11 -28 -10 -6 -14 7 -11 33 1 6 -3 12 -9 12 -6 0 -10 -12 -8
-27z"/>
<path d="M860 278 c0 -17 3 -28 7 -24 4 4 8 15 8 23 0 25 19 25 30 1 10 -24
42 -32 38 -10 -2 6 2 12 8 12 8 0 8 4 0 14 -6 7 -29 14 -51 14 -38 1 -40 -1
-40 -30z m77 2 c-1 -11 -5 -20 -9 -20 -3 0 -6 9 -5 20 1 11 5 20 9 20 3 0 6
-9 5 -20z"/>
<path d="M760 270 c0 -5 -8 -7 -17 -3 -14 5 -16 3 -6 -7 6 -7 19 -10 27 -7 18
7 22 27 6 27 -5 0 -10 -4 -10 -10z"/>
</g>
</svg>
